Coordinates
version=1
nRows=8
nColumns=42
inDegrees=yes

Units are S.I. units (second, meters, Newtons, ...)
If the header above contains a line with 'inDegrees', this indicates whether rotational values are in degrees (yes) or radians (no).

endheader
time	pelvis_tilt	pelvis_list	pelvis_rotation	pelvis_tx	pelvis_ty	pelvis_tz	hip_flexion_r	hip_adduction_r	hip_rotation_r	knee_angle_r	knee_adduction_r	knee_angle_r_beta	ankle_angle_r	subtalar_angle_r	mtp_angle_r	hip_flexion_l	hip_adduction_l	hip_rotation_l	knee_angle_l	knee_adduction_l	knee_angle_l_beta	ankle_angle_l	subtalar_angle_l	mtp_angle_l	lumbar_extension	lumbar_bending	lumbar_rotation	arm_flex_r	arm_add_r	arm_rot_r	elbow_flex_r	pro_sup_r	wrist_flex_r	wrist_dev_r	arm_flex_l	arm_add_l	arm_rot_l	elbow_flex_l	pro_sup_l	wrist_flex_l	wrist_dev_l
      2.37000000	      4.24884987	     -0.26705823	      6.10660175	     -0.36774690	      0.85140125	      0.14693132	     17.80452240	      0.47548081	      5.01637186	     75.61477090	      5.73679851	      1.31972672	     15.60846683	    -19.26843279	     -7.50691701	     22.66001763	      7.58564382	     -5.46104141	     42.57652649	     -9.71656413	      0.74310057	     20.63882200	    -17.55149314	     -7.50691701	    -31.39179711	      1.97994065	     -3.72159683	     10.67406979	     -8.19782644	     -0.14918065	     40.63114091	     90.00000001	      0.00000000	      0.00000000	      9.27773553	     -9.94034000	    -18.28539471	     31.82206154	     90.00000001	      0.00000000	      0.00000000
      2.38000000	      4.25045090	     -0.29026968	      6.19195570	     -0.35893255	      0.85215487	      0.14635366	     19.35391403	      0.40909165	      5.06513806	     74.96344614	      5.55995932	      1.30835895	     15.78458690	    -19.31284829	     -7.50684554	     21.92863981	      7.53042685	     -5.69132217	     42.51557316	     -9.88057532	      0.74203674	     20.89584829	    -17.19404498	     -7.50684554	    -31.57781191	      2.11191865	     -3.97862524	     10.18304116	     -7.99546103	     -0.09410382	     40.48266755	     90.00000001	      0.00000000	      0.00000000	     10.11941813	    -10.18523344	    -18.14308650	     32.31974940	     90.00000001	      0.00000000	      0.00000000
      2.39000000	      4.32550753	     -0.26552268	      6.21623546	     -0.34997813	      0.85287596	      0.14580919	     20.75363286	      0.29098518	      5.04250590	     74.02500633	      5.28856511	      1.29198009	     16.35726969	    -19.30081570	     -7.50670441	     21.01581819	      7.56833268	     -5.98531601	     42.29826317	    -10.15545037	      0.73824396	     21.98338077	    -17.18501089	     -7.50670441	    -31.79636909	      2.18388865	     -4.01287133	      9.77926467	     -7.92832297	     -0.07895255	     39.74020252	     90.00000001	      0.00000000	      0.00000000	     10.82354433	    -10.35994317	    -17.48722506	     33.13140620	     90.00000001	      0.00000000	      0.00000000
      2.40000000	      4.46417966	     -0.26066815	      6.35880067	     -0.34096295	      0.85366893	      0.14535617	     21.91497516	      0.20595252	      4.82783884	     72.63323811	      4.93247994	      1.26768915	     16.67751597	    -19.28973967	     -7.50640939	     20.02893260	      7.54557185	     -6.09295060	     42.09821120	    -10.32185748	      0.73475239	     22.84138506	    -16.79827998	     -7.50640939	    -32.08682761	      2.28809994	     -4.36959957	      9.73924065	     -7.59708586	     -0.14304119	     38.28487048	     90.00000001	      0.00000000	      0.00000000	     11.06516633	    -10.98101655	    -15.59362897	     34.58260700	     90.00000001	      0.00000000	      0.00000000
      2.41000000	      4.35414764	     -0.21359186	      6.48568067	     -0.33212111	      0.85384047	      0.14495414	     23.38275541	      0.00145963	      4.80605180	     71.14085262	      4.79095836	      1.24164211	     16.66102368	    -19.31330361	     -7.50633103	     19.43481174	      7.57581235	     -6.34308278	     42.04012604	    -10.52894411	      0.73373862	     23.04727744	    -16.35632797	     -7.50633103	    -32.08303278	      2.32246021	     -4.66822279	      9.15752906	     -7.40834561	     -0.12015955	     38.11828426	     90.00000001	      0.00000000	      0.00000000	     11.80146661	    -11.30466323	    -15.39438467	     35.10727437	     90.00000001	      0.00000000	      0.00000000
      2.42000000	      4.54379837	     -0.22082450	      6.68249644	     -0.32302650	      0.85452957	      0.14459220	     24.26074231	     -0.04380113	      4.28114620	     69.06649991	      4.13870349	      1.20543783	     16.67081671	    -19.25805097	     -7.50580557	     18.39261691	      7.50649698	     -6.50414139	     41.81324759	    -10.73060066	      0.72977884	     24.03007772	    -16.17508067	     -7.50580557	    -32.42182928	      2.46326007	     -4.92209685	      9.09366190	     -7.07191567	     -0.73081489	     36.47605265	     90.00000001	      0.00000000	      0.00000000	     11.69761619	    -12.30833841	    -11.54655295	     37.34183016	     90.00000001	      0.00000000	      0.00000000
      2.43000000	      4.39419918	     -0.10553154	      6.87705480	     -0.31411303	      0.85440348	      0.14427452	     25.52996937	     -0.37301447	      4.21532001	     66.95844691	      4.01247547	      1.16864536	     16.58234262	    -19.24495735	     -7.50572088	     17.85365657	      7.58411490	     -6.74860733	     41.76507454	    -10.91110124	      0.72893806	     24.32013244	    -15.62950244	     -7.50572088	    -32.36422963	      2.41982224	     -5.29999668	      8.44936300	     -6.90455652	     -0.72831165	     36.37035578	     90.00000001	      0.00000000	      0.00000000	     12.42698191	    -12.66759410	    -11.42865518	     37.82378005	     90.00000001	      0.00000000	      0.00000000
      2.44000000	      4.63876769	     -0.18523216	      7.06059036	     -0.30487344	      0.85498464	      0.14402619	     26.04470057	     -0.34390607	      4.02248689	     64.18089927	      3.74207226	      1.12016801	     16.39152878	    -19.22023509	     -7.50560376	     16.75792128	      7.38107606	     -6.90360774	     41.59031308	    -11.08565313	      0.72588790	     25.38244033	    -15.43508274	     -7.50560376	    -32.71611048	      2.67319602	     -5.49773661	      8.00576212	     -6.85725483	     -0.85991112	     35.89555943	     90.00000001	      0.00000000	      0.00000000	     13.04981106	    -12.94005109	    -10.82653522	     38.50646366	     90.00000001	      0.00000000	      0.00000000
